<svg width="266" height="275" viewBox="0 0 266 275" fill="none" xmlns="http://www.w3.org/2000/svg">
<g clip-path="url(#clip0)">
<g filter="url(#filter0_d)">
<path d="M8.82847 274.456H12.567V249.706H20.9042V246.263H0.543945V249.706H8.82847V274.456Z" fill="white"/>
<path d="M29.3118 246.263H25.5732V274.456H29.3118V246.263Z" fill="white"/>
<path d="M54.3408 246.263H33.998V249.706H42.2826V274.456H46.0036V249.706H54.3408V246.263Z" fill="white"/>
<path d="M74.8941 271.996L76.0174 274.455H79.9491V274.368L66.6973 246.053H65.5389L52.3398 274.368V274.455H56.289L58.0442 270.556V270.38L60.2382 265.497L61.4142 262.933L64.1699 256.908C64.6789 255.801 65.2932 254.308 66.0479 252.394C66.7676 254.238 67.3819 255.749 67.9084 256.908L71.0151 263.477L71.9454 265.532L74.8941 271.996Z" fill="white"/>
<path d="M87.8647 256.451C87.8647 255.45 87.8647 254.431 87.7419 253.412L90.0236 255.995L106.347 274.614H107.927V246.263H104.188V263.829C104.188 264.531 104.188 265.585 104.188 267.342L102.995 265.989L101.748 264.566L85.583 246.158H84.249V274.561H87.9349L87.8647 256.451Z" fill="white"/>
<path d="M135.993 261.58C134.085 260.068 131.912 258.925 129.586 258.208C128.621 257.874 127.831 257.593 127.252 257.347C126.588 257.058 125.949 256.718 125.339 256.328C124.726 255.963 124.209 255.457 123.829 254.853C123.491 254.273 123.321 253.61 123.338 252.938C123.323 252.371 123.462 251.81 123.74 251.315C124.018 250.82 124.425 250.41 124.917 250.128C126.052 249.435 127.363 249.087 128.691 249.127C131.207 249.166 133.653 249.962 135.712 251.41L137.467 248.635C134.922 246.763 131.849 245.749 128.691 245.736C126.339 245.593 124.011 246.277 122.109 247.669C121.331 248.299 120.7 249.091 120.257 249.99C119.814 250.888 119.571 251.872 119.544 252.873C119.518 253.875 119.708 254.87 120.102 255.791C120.497 256.712 121.085 257.536 121.828 258.208C123.668 259.688 125.77 260.808 128.024 261.51C128.859 261.771 129.679 262.076 130.481 262.423C131.174 262.723 131.843 263.076 132.482 263.477C133.119 263.839 133.651 264.36 134.027 264.988C134.363 265.594 134.533 266.279 134.518 266.973C134.537 267.633 134.385 268.287 134.077 268.871C133.77 269.456 133.317 269.951 132.763 270.31C131.536 271.153 130.073 271.583 128.586 271.54C125.61 271.593 122.723 270.528 120.494 268.554L118.651 271.557C121.457 273.88 124.998 275.125 128.638 275.07C131.126 275.164 133.567 274.381 135.536 272.857C136.434 272.161 137.152 271.261 137.631 270.232C138.11 269.202 138.337 268.073 138.292 266.938C138.347 265.928 138.168 264.919 137.769 263.99C137.37 263.06 136.762 262.236 135.993 261.58Z" fill="white"/>
<path d="M140.45 249.706H148.735V274.455H152.473V249.706H160.793V246.246H140.45V249.706Z" fill="white"/>
<path d="M178.451 262.88C180.482 262.557 182.341 261.546 183.717 260.017C184.987 258.559 185.669 256.681 185.63 254.747C185.651 253.601 185.424 252.465 184.963 251.415C184.502 250.366 183.82 249.429 182.962 248.67C181.148 247.032 178.769 246.163 176.328 246.246H165.48V274.455H169.219V263.179H174.485L181.769 274.455H186.051V274.332L178.451 262.88ZM169.219 259.964V249.689H176.135C177.64 249.627 179.112 250.149 180.242 251.146C180.753 251.619 181.158 252.196 181.427 252.839C181.697 253.481 181.825 254.174 181.804 254.87C181.839 255.565 181.72 256.259 181.456 256.903C181.192 257.547 180.79 258.124 180.277 258.594C179.089 259.566 177.579 260.056 176.047 259.964H169.219Z" fill="white"/>
<path d="M214.257 249.812C211.437 247.17 207.72 245.701 203.857 245.701C199.995 245.701 196.278 247.17 193.458 249.812C192.102 251.2 191.043 252.851 190.345 254.663C189.648 256.475 189.328 258.41 189.403 260.351C189.358 262.273 189.695 264.185 190.394 265.976C191.093 267.767 192.141 269.402 193.475 270.784C196.243 273.507 199.968 275.033 203.849 275.033C207.729 275.033 211.455 273.507 214.222 270.784C215.551 269.398 216.594 267.763 217.29 265.973C217.986 264.182 218.321 262.271 218.276 260.351C218.351 258.414 218.033 256.481 217.342 254.67C216.651 252.859 215.602 251.207 214.257 249.812ZM211.554 268.29C210.553 269.319 209.356 270.137 208.034 270.695C206.713 271.253 205.292 271.541 203.857 271.541C202.423 271.541 201.002 271.253 199.68 270.695C198.359 270.137 197.162 269.319 196.161 268.29C194.187 266.112 193.131 263.255 193.212 260.316C193.098 257.355 194.158 254.47 196.161 252.288C198.225 250.282 200.989 249.159 203.866 249.159C206.744 249.159 209.508 250.282 211.572 252.288C213.48 254.517 214.529 257.355 214.529 260.289C214.529 263.224 213.48 266.062 211.572 268.29H211.554Z" fill="white"/>
<path d="M233.774 254.835C232.686 256.592 231.896 257.944 231.457 258.858C230.778 257.465 230.004 256.121 229.14 254.835L223.418 246.246H219.118V246.369L229.562 261.967V274.455H233.318V261.967L243.849 246.369V246.246H239.531L233.774 254.835Z" fill="white"/>
<path d="M254.889 261.176V261.106H252.801L247.342 267.271V261.106H245.569V274.455H247.342V268.308L253.082 274.455H255.258V274.403L249.062 267.746L254.889 261.176Z" fill="white"/>
<path d="M260.103 272.822H258.839C258.839 272.822 259.12 272.383 259.646 271.592L265.877 261.615V261.088H256.592V262.722H263.28L262.806 263.46L262.384 264.127L256.259 274.016V274.543H266.018V272.91L260.103 272.822Z" fill="white"/>
<path d="M253.977 0V32.0388H143.891V69.5931H105.961V32.0388H0V0H253.977Z" fill="white"/>
<path d="M143.891 110.467H105.961V183.152H143.891V110.467Z" fill="white"/>
<path d="M243.622 73.6507V106.234H70.173V127.523L101.696 132.705V167.536L10.6719 153.274V73.6507H243.622Z" fill="white"/>
<path d="M243.622 155.294V232.896H10.6719V200.295H184.138V180.886L148.209 174.791V140.363L243.622 155.294Z" fill="white"/>
</g>
</g>
<defs>
<filter id="filter0_d" x="-4" y="0" width="274.018" height="283.078" filterUnits="userSpaceOnUse" color-interpolation-filters="sRGB">
<feFlood flood-opacity="0" result="BackgroundImageFix"/>
<feColorMatrix in="SourceAlpha" type="matrix" values="0 0 0 0 0 0 0 0 0 0 0 0 0 0 0 0 0 0 127 0" result="hardAlpha"/>
<feOffset dy="4"/>
<feGaussianBlur stdDeviation="2"/>
<feComposite in2="hardAlpha" operator="out"/>
<feColorMatrix type="matrix" values="0 0 0 0 0 0 0 0 0 0 0 0 0 0 0 0 0 0 0.25 0"/>
<feBlend mode="normal" in2="BackgroundImageFix" result="effect1_dropShadow"/>
<feBlend mode="normal" in="SourceGraphic" in2="effect1_dropShadow" result="shape"/>
</filter>
<clipPath id="clip0">
<rect width="266" height="275" fill="white"/>
</clipPath>
</defs>
</svg>
