<svg width="20" height="24" viewBox="0 0 20 24" fill="none" xmlns="http://www.w3.org/2000/svg">
<path d="M10 0.25C15.385 0.25 19.75 4.615 19.75 10C19.75 14.12 16.855 18.61 11.14 23.518C10.8222 23.791 10.4171 23.9409 9.99813 23.9405C9.5792 23.9402 9.1743 23.7895 8.857 23.516L8.479 23.188C3.017 18.408 0.25 14.028 0.25 10C0.25 4.615 4.615 0.25 10 0.25ZM10 1.75C7.81196 1.75 5.71354 2.61919 4.16637 4.16637C2.61919 5.71354 1.75 7.81196 1.75 10C1.75 13.502 4.298 17.537 9.464 22.057L9.837 22.38C9.88235 22.419 9.94019 22.4404 10 22.4404C10.0598 22.4404 10.1176 22.419 10.163 22.38C15.579 17.728 18.25 13.585 18.25 10C18.25 8.91659 18.0366 7.8438 17.622 6.84286C17.2074 5.84193 16.5997 4.93245 15.8336 4.16637C15.0675 3.40029 14.1581 2.7926 13.1571 2.37799C12.1562 1.96339 11.0834 1.75 10 1.75ZM10 6.25C10.9946 6.25 11.9484 6.64509 12.6517 7.34835C13.3549 8.05161 13.75 9.00544 13.75 10C13.75 10.9946 13.3549 11.9484 12.6517 12.6517C11.9484 13.3549 10.9946 13.75 10 13.75C9.00544 13.75 8.05161 13.3549 7.34835 12.6517C6.64509 11.9484 6.25 10.9946 6.25 10C6.25 9.00544 6.64509 8.05161 7.34835 7.34835C8.05161 6.64509 9.00544 6.25 10 6.25ZM10 7.75C9.40326 7.75 8.83097 7.98705 8.40901 8.40901C7.98705 8.83097 7.75 9.40326 7.75 10C7.75 10.5967 7.98705 11.169 8.40901 11.591C8.83097 12.0129 9.40326 12.25 10 12.25C10.5967 12.25 11.169 12.0129 11.591 11.591C12.0129 11.169 12.25 10.5967 12.25 10C12.25 9.40326 12.0129 8.83097 11.591 8.40901C11.169 7.98705 10.5967 7.75 10 7.75Z" fill="white"/>
</svg>
