<svg width="28" height="24" viewBox="0 0 28 24" fill="none" xmlns="http://www.w3.org/2000/svg">
<path fill-rule="evenodd" clip-rule="evenodd" d="M0.666871 9.33333C0.666871 3.99333 5.64287 0 11.3335 0C17.0242 0 22.0002 3.99333 22.0002 9.33333C22.0002 14.6733 17.0242 18.6667 11.3335 18.6667C9.86255 18.6704 8.40348 18.4028 7.02954 17.8773L2.21087 18.6507C1.98659 18.6867 1.75682 18.6648 1.54336 18.5872C1.3299 18.5095 1.13982 18.3785 0.991169 18.2068C0.842513 18.035 0.740205 17.8281 0.69395 17.6057C0.647695 17.3833 0.659027 17.1528 0.726871 16.936L1.79354 13.5187C1.05745 12.2465 0.668894 10.8031 0.666871 9.33333ZM11.3335 20.2227C10.0775 20.2227 8.8602 20.0587 7.7122 19.7547C9.6482 22.3507 13.0095 24 16.6669 24C18.1379 24.0038 19.597 23.7362 20.9709 23.2107L25.7895 23.984C26.0138 24.02 26.2436 23.9982 26.4571 23.9205C26.6705 23.8428 26.8606 23.7119 27.0092 23.5401C27.1579 23.3683 27.2602 23.1615 27.3065 22.9391C27.3527 22.7167 27.3414 22.4861 27.2735 22.2693L26.2069 18.852C26.943 17.5798 27.3315 16.1364 27.3335 14.6667C27.3335 11.7707 25.8695 9.27067 23.6229 7.58933C23.726 8.16494 23.7778 8.74857 23.7775 9.33333C23.7775 15.564 17.9735 20.2227 11.3335 20.2227Z" fill="white"/>
</svg>
