<svg width="24" height="24" viewBox="0 0 24 24" fill="none" xmlns="http://www.w3.org/2000/svg">
<path fill-rule="evenodd" clip-rule="evenodd" d="M17.415 14.382C17.117 14.233 15.656 13.515 15.384 13.415C15.112 13.316 14.914 13.267 14.715 13.565C14.517 13.861 13.948 14.531 13.775 14.729C13.601 14.928 13.428 14.952 13.131 14.804C12.834 14.654 11.876 14.341 10.741 13.329C9.85798 12.541 9.26098 11.568 9.08799 11.27C8.91499 10.973 9.06898 10.812 9.21799 10.664C9.35198 10.531 9.51498 10.317 9.66398 10.144C9.81298 9.97002 9.86198 9.84602 9.96098 9.64703C10.061 9.44903 10.011 9.27603 9.93598 9.12703C9.86198 8.97803 9.26799 7.51503 9.01999 6.92003C8.77899 6.34103 8.53399 6.42003 8.35199 6.41003C8.17799 6.40203 7.97999 6.40003 7.78199 6.40003C7.58399 6.40003 7.26199 6.47403 6.98999 6.77203C6.71699 7.06903 5.94999 7.78803 5.94999 9.25103C5.94999 10.713 7.01399 12.126 7.16299 12.325C7.31199 12.523 9.25799 15.525 12.239 16.812C12.949 17.118 13.502 17.301 13.933 17.437C14.645 17.664 15.293 17.632 15.805 17.555C16.375 17.47 17.563 16.836 17.811 16.142C18.058 15.448 18.058 14.853 17.984 14.729C17.91 14.605 17.712 14.531 17.414 14.382H17.415ZM11.993 21.785H11.989C10.2184 21.7853 8.48036 21.3094 6.95699 20.407L6.59699 20.193L2.855 21.175L3.85399 17.527L3.61899 17.153C2.62913 15.5774 2.10529 13.7538 2.108 11.893C2.11 6.44303 6.54399 2.00904 11.997 2.00904C14.637 2.00904 17.119 3.03904 18.985 4.90703C19.9053 5.82361 20.6348 6.9136 21.1312 8.11392C21.6276 9.31425 21.8811 10.6011 21.877 11.9C21.875 17.35 17.441 21.785 11.993 21.785ZM20.405 3.48804C19.3032 2.37896 17.9922 1.49958 16.5481 0.90084C15.1039 0.302104 13.5553 -0.00407624 11.992 4.09775e-05C5.43799 4.09775e-05 0.102 5.33503 0.0999998 11.892C0.0989998 13.988 0.645999 16.034 1.687 17.837L0 24L6.30399 22.346C8.04786 23.2961 10.0021 23.794 11.988 23.794H11.993C18.547 23.794 23.883 18.459 23.885 11.901C23.8898 10.3383 23.5847 8.79013 22.9874 7.34606C22.3901 5.902 21.5123 4.5907 20.405 3.48804Z" fill="white"/>
</svg>
